<!--?xml version="1.0" standalone="no"?-->
              <svg id="sw-js-blob-svg" viewBox="0 0 100 100" xmlns="http://www.w3.org/2000/svg" version="1.1">
                    <defs> 
                        <linearGradient id="sw-gradient" x1="0" x2="1" y1="1" y2="0">
                            <stop id="stop1" stop-color="rgba(248, 117, 55, 1)" offset="0%"></stop>
                            <stop id="stop2" stop-color="rgba(251, 168, 31, 1)" offset="100%"></stop>
                        </linearGradient>
                    </defs>
                <path fill="url(#sw-gradient)" d="M21.9,-38C27.2,-34.8,29.5,-26.6,32.2,-19.4C35,-12.2,38.2,-6.1,38.1,-0.1C38,6,34.5,11.9,30.5,16.9C26.4,21.9,21.8,25.8,16.6,29.5C11.4,33.3,5.7,36.8,-1.2,38.9C-8.2,41.1,-16.3,41.7,-21.8,38.2C-27.3,34.6,-30,26.8,-31.9,19.7C-33.8,12.6,-34.8,6.3,-35.6,-0.5C-36.3,-7.2,-36.9,-14.4,-34.1,-19.9C-31.3,-25.3,-25,-28.9,-18.8,-31.5C-12.5,-34,-6.3,-35.5,1,-37.3C8.3,-39.1,16.6,-41.1,21.9,-38Z" width="100%" height="100%" transform="translate(50 50)" stroke-width="0" style="transition: all 0.3s ease 0s;"></path>
              </svg>